<?xml version="1.0" encoding="UTF-8" standalone="no"?>
<!DOCTYPE svg PUBLIC "-//W3C//DTD SVG 1.1//EN"
 "http://www.w3.org/Graphics/SVG/1.1/DTD/svg11.dtd">
<!-- Generated by graphviz version 2.26.3 (20100126.1600)
 -->
<!-- Title: G Pages: 1 -->
<svg width="1230pt" height="1280pt"
 viewBox="0.00 0.00 1230.00 1280.07" xmlns="http://www.w3.org/2000/svg" xmlns:xlink="http://www.w3.org/1999/xlink">
<g id="graph1" class="graph" transform="scale(1 1) rotate(0) translate(4 1276.07)">
<title>G</title>
<polygon fill="white" stroke="white" points="-4,5 -4,-1276.07 1227,-1276.07 1227,5 -4,5"/>
<g id="graph2" class="cluster"><title>cluster_Global</title>
<polyline fill="none" stroke="gray" points="554,-212.067 1202,-212.067 "/>
<path fill="none" stroke="gray" d="M1202,-212.067C1208,-212.067 1214,-218.067 1214,-224.067"/>
<polyline fill="none" stroke="gray" points="1214,-224.067 1214,-1252.07 "/>
<path fill="none" stroke="gray" d="M1214,-1252.07C1214,-1258.07 1208,-1264.07 1202,-1264.07"/>
<polyline fill="none" stroke="gray" points="1202,-1264.07 554,-1264.07 "/>
<path fill="none" stroke="gray" d="M554,-1264.07C548,-1264.07 542,-1258.07 542,-1252.07"/>
<polyline fill="none" stroke="gray" points="542,-1252.07 542,-224.067 "/>
<path fill="none" stroke="gray" d="M542,-224.067C542,-218.067 548,-212.067 554,-212.067"/>
<text text-anchor="middle" x="878" y="-1250.17" font-family="Times Roman,serif" font-size="11.00" fill="gray">\</text>
</g>
<g id="graph3" class="cluster"><title>cluster_\Ant</title>
<polyline fill="none" stroke="gray" points="562,-220.067 1194,-220.067 "/>
<path fill="none" stroke="gray" d="M1194,-220.067C1200,-220.067 1206,-226.067 1206,-232.067"/>
<polyline fill="none" stroke="gray" points="1206,-232.067 1206,-1222.07 "/>
<path fill="none" stroke="gray" d="M1206,-1222.07C1206,-1228.07 1200,-1234.07 1194,-1234.07"/>
<polyline fill="none" stroke="gray" points="1194,-1234.07 562,-1234.07 "/>
<path fill="none" stroke="gray" d="M562,-1234.07C556,-1234.07 550,-1228.07 550,-1222.07"/>
<polyline fill="none" stroke="gray" points="550,-1222.07 550,-232.067 "/>
<path fill="none" stroke="gray" d="M550,-232.067C550,-226.067 556,-220.067 562,-220.067"/>
<text text-anchor="middle" x="878" y="-1220.17" font-family="Times Roman,serif" font-size="11.00" fill="gray">Ant</text>
</g>
<g id="graph4" class="cluster"><title>cluster_\Ant\Guzzle</title>
<polyline fill="none" stroke="gray" points="575,-846.067 1169,-846.067 "/>
<path fill="none" stroke="gray" d="M1169,-846.067C1175,-846.067 1181,-852.067 1181,-858.067"/>
<polyline fill="none" stroke="gray" points="1181,-858.067 1181,-1192.07 "/>
<path fill="none" stroke="gray" d="M1181,-1192.07C1181,-1198.07 1175,-1204.07 1169,-1204.07"/>
<polyline fill="none" stroke="gray" points="1169,-1204.07 575,-1204.07 "/>
<path fill="none" stroke="gray" d="M575,-1204.07C569,-1204.07 563,-1198.07 563,-1192.07"/>
<polyline fill="none" stroke="gray" points="563,-1192.07 563,-858.067 "/>
<path fill="none" stroke="gray" d="M563,-858.067C563,-852.067 569,-846.067 575,-846.067"/>
<text text-anchor="middle" x="872" y="-1190.17" font-family="Times Roman,serif" font-size="11.00" fill="gray">Guzzle</text>
</g>
<g id="graph5" class="cluster"><title>cluster_\Ant\Guzzle\Plugin</title>
<polyline fill="none" stroke="gray" points="583,-854.067 1161,-854.067 "/>
<path fill="none" stroke="gray" d="M1161,-854.067C1167,-854.067 1173,-860.067 1173,-866.067"/>
<polyline fill="none" stroke="gray" points="1173,-866.067 1173,-1162.07 "/>
<path fill="none" stroke="gray" d="M1173,-1162.07C1173,-1168.07 1167,-1174.07 1161,-1174.07"/>
<polyline fill="none" stroke="gray" points="1161,-1174.07 583,-1174.07 "/>
<path fill="none" stroke="gray" d="M583,-1174.07C577,-1174.07 571,-1168.07 571,-1162.07"/>
<polyline fill="none" stroke="gray" points="571,-1162.07 571,-866.067 "/>
<path fill="none" stroke="gray" d="M571,-866.067C571,-860.067 577,-854.067 583,-854.067"/>
<text text-anchor="middle" x="872" y="-1160.17" font-family="Times Roman,serif" font-size="11.00" fill="gray">Plugin</text>
</g>
<g id="graph6" class="cluster"><title>cluster_\Ant\Guzzle\Plugin\Token</title>
<polyline fill="none" stroke="gray" points="591,-1016.07 1137,-1016.07 "/>
<path fill="none" stroke="gray" d="M1137,-1016.07C1143,-1016.07 1149,-1022.07 1149,-1028.07"/>
<polyline fill="none" stroke="gray" points="1149,-1028.07 1149,-1132.07 "/>
<path fill="none" stroke="gray" d="M1149,-1132.07C1149,-1138.07 1143,-1144.07 1137,-1144.07"/>
<polyline fill="none" stroke="gray" points="1137,-1144.07 591,-1144.07 "/>
<path fill="none" stroke="gray" d="M591,-1144.07C585,-1144.07 579,-1138.07 579,-1132.07"/>
<polyline fill="none" stroke="gray" points="579,-1132.07 579,-1028.07 "/>
<path fill="none" stroke="gray" d="M579,-1028.07C579,-1022.07 585,-1016.07 591,-1016.07"/>
<text text-anchor="middle" x="864" y="-1130.17" font-family="Times Roman,serif" font-size="11.00" fill="gray">Token</text>
</g>
<g id="graph7" class="cluster"><title>cluster_\Ant\ChateaClient</title>
<polyline fill="none" stroke="gray" points="570,-228.067 1186,-228.067 "/>
<path fill="none" stroke="gray" d="M1186,-228.067C1192,-228.067 1198,-234.067 1198,-240.067"/>
<polyline fill="none" stroke="gray" points="1198,-240.067 1198,-826.067 "/>
<path fill="none" stroke="gray" d="M1198,-826.067C1198,-832.067 1192,-838.067 1186,-838.067"/>
<polyline fill="none" stroke="gray" points="1186,-838.067 570,-838.067 "/>
<path fill="none" stroke="gray" d="M570,-838.067C564,-838.067 558,-832.067 558,-826.067"/>
<polyline fill="none" stroke="gray" points="558,-826.067 558,-240.067 "/>
<path fill="none" stroke="gray" d="M558,-240.067C558,-234.067 564,-228.067 570,-228.067"/>
<text text-anchor="middle" x="878" y="-824.167" font-family="Times Roman,serif" font-size="11.00" fill="gray">ChateaClient</text>
</g>
<g id="graph8" class="cluster"><title>cluster_\Ant\ChateaClient\Service</title>
<polyline fill="none" stroke="gray" points="578,-426.067 1178,-426.067 "/>
<path fill="none" stroke="gray" d="M1178,-426.067C1184,-426.067 1190,-432.067 1190,-438.067"/>
<polyline fill="none" stroke="gray" points="1190,-438.067 1190,-796.067 "/>
<path fill="none" stroke="gray" d="M1190,-796.067C1190,-802.067 1184,-808.067 1178,-808.067"/>
<polyline fill="none" stroke="gray" points="1178,-808.067 578,-808.067 "/>
<path fill="none" stroke="gray" d="M578,-808.067C572,-808.067 566,-802.067 566,-796.067"/>
<polyline fill="none" stroke="gray" points="566,-796.067 566,-438.067 "/>
<path fill="none" stroke="gray" d="M566,-438.067C566,-432.067 572,-426.067 578,-426.067"/>
<text text-anchor="middle" x="878" y="-794.167" font-family="Times Roman,serif" font-size="11.00" fill="gray">Service</text>
</g>
<g id="graph9" class="cluster"><title>cluster_\Ant\ChateaClient\Service\Client</title>
<polyline fill="none" stroke="gray" points="586,-434.067 1170,-434.067 "/>
<path fill="none" stroke="gray" d="M1170,-434.067C1176,-434.067 1182,-440.067 1182,-446.067"/>
<polyline fill="none" stroke="gray" points="1182,-446.067 1182,-766.067 "/>
<path fill="none" stroke="gray" d="M1182,-766.067C1182,-772.067 1176,-778.067 1170,-778.067"/>
<polyline fill="none" stroke="gray" points="1170,-778.067 586,-778.067 "/>
<path fill="none" stroke="gray" d="M586,-778.067C580,-778.067 574,-772.067 574,-766.067"/>
<polyline fill="none" stroke="gray" points="574,-766.067 574,-446.067 "/>
<path fill="none" stroke="gray" d="M574,-446.067C574,-440.067 580,-434.067 586,-434.067"/>
<text text-anchor="middle" x="878" y="-764.167" font-family="Times Roman,serif" font-size="11.00" fill="gray">Client</text>
</g>
<g id="graph10" class="cluster"><title>cluster_\Ant\ChateaClient\Client</title>
<polyline fill="none" stroke="gray" points="593,-236.067 1143,-236.067 "/>
<path fill="none" stroke="gray" d="M1143,-236.067C1149,-236.067 1155,-242.067 1155,-248.067"/>
<polyline fill="none" stroke="gray" points="1155,-248.067 1155,-406.067 "/>
<path fill="none" stroke="gray" d="M1155,-406.067C1155,-412.067 1149,-418.067 1143,-418.067"/>
<polyline fill="none" stroke="gray" points="1143,-418.067 593,-418.067 "/>
<path fill="none" stroke="gray" d="M593,-418.067C587,-418.067 581,-412.067 581,-406.067"/>
<polyline fill="none" stroke="gray" points="581,-406.067 581,-248.067 "/>
<path fill="none" stroke="gray" d="M581,-248.067C581,-242.067 587,-236.067 593,-236.067"/>
<text text-anchor="middle" x="868" y="-404.167" font-family="Times Roman,serif" font-size="11.00" fill="gray">Client</text>
</g>
<!-- \\Ant\\Guzzle\\Plugin\\Token\\BearerToken -->
<g id="node6" class="node"><title>\\Ant\\Guzzle\\Plugin\\Token\\BearerToken</title>
<polygon fill="none" stroke="black" points="1140,-1114.07 1058,-1114.07 1058,-1078.07 1140,-1078.07 1140,-1114.07"/>
<text text-anchor="middle" x="1099" y="-1093.17" font-family="Times Roman,serif" font-size="11.00">BearerToken</text>
</g>
<!-- \\Ant\\Guzzle\\Plugin\\Token\\AccessToken -->
<g id="node8" class="node"><title>\\Ant\\Guzzle\\Plugin\\Token\\AccessToken</title>
<polygon fill="none" stroke="black" points="672,-1114.07 588,-1114.07 588,-1078.07 672,-1078.07 672,-1114.07"/>
<text text-anchor="middle" x="630" y="-1093.17" font-family="Times Roman,serif" font-size="11.00">AccessToken</text>
</g>
<!-- \\Ant\\Guzzle\\Plugin\\Token\\BearerToken&#45;&gt;\\Ant\\Guzzle\\Plugin\\Token\\AccessToken -->
<g id="edge29" class="edge"><title>\\Ant\\Guzzle\\Plugin\\Token\\BearerToken&#45;&gt;\\Ant\\Guzzle\\Plugin\\Token\\AccessToken</title>
<path fill="none" stroke="black" stroke-dasharray="1,5" d="M1057.38,-1096.07C971.919,-1096.07 776.798,-1096.07 682.687,-1096.07"/>
<polygon fill="none" stroke="black" points="682.54,-1092.57 672.54,-1096.07 682.54,-1099.57 682.54,-1092.57"/>
</g>
<!-- \\Ant\\Guzzle\\Plugin\\Token\\MacToken -->
<g id="node7" class="node"><title>\\Ant\\Guzzle\\Plugin\\Token\\MacToken</title>
<polygon fill="none" stroke="black" points="1133,-1060.07 1065,-1060.07 1065,-1024.07 1133,-1024.07 1133,-1060.07"/>
<text text-anchor="middle" x="1099" y="-1039.17" font-family="Times Roman,serif" font-size="11.00">MacToken</text>
</g>
<!-- \\Ant\\Guzzle\\Plugin\\Token\\AcessToken -->
<g id="node43" class="node"><title>\\Ant\\Guzzle\\Plugin\\Token\\AcessToken</title>
<ellipse fill="none" stroke="black" cx="630" cy="-186.067" rx="189.202" ry="18"/>
<text text-anchor="middle" x="630" y="-181.967" font-family="Times Roman,serif" font-size="14.00" fill="gray">\Ant\Guzzle\Plugin\Token\AcessToken</text>
</g>
<!-- \\Ant\\Guzzle\\Plugin\\Token\\MacToken&#45;&gt;\\Ant\\Guzzle\\Plugin\\Token\\AcessToken -->
<g id="edge33" class="edge"><title>\\Ant\\Guzzle\\Plugin\\Token\\MacToken&#45;&gt;\\Ant\\Guzzle\\Plugin\\Token\\AcessToken</title>
<path fill="none" stroke="black" stroke-dasharray="1,5" d="M1064.44,-1040.3C1049.77,-1037.68 1033.83,-1032.01 1024,-1020.07 912.303,-884.26 1073.14,-359.522 952,-232.067 899.068,-176.376 811.445,-166.889 740.958,-170.224"/>
<polygon fill="none" stroke="black" points="740.475,-166.745 730.689,-170.805 740.871,-173.734 740.475,-166.745"/>
</g>
<!-- \\Ant\\Guzzle\\Plugin\\QueryPluging -->
<g id="node9" class="node"><title>\\Ant\\Guzzle\\Plugin\\QueryPluging</title>
<polygon fill="none" stroke="black" points="1143,-898.067 1055,-898.067 1055,-862.067 1143,-862.067 1143,-898.067"/>
<text text-anchor="middle" x="1099" y="-877.167" font-family="Times Roman,serif" font-size="11.00">QueryPluging</text>
</g>
<!-- \\Symfony\\Component\\EventDispatcher\\EventSubscriberInterface -->
<g id="node29" class="node"><title>\\Symfony\\Component\\EventDispatcher\\EventSubscriberInterface</title>
<ellipse fill="none" stroke="black" cx="630" cy="-132.067" rx="321.23" ry="18"/>
<text text-anchor="middle" x="630" y="-127.967" font-family="Times Roman,serif" font-size="14.00" fill="gray">\Symfony\Component\EventDispatcher\EventSubscriberInterface</text>
</g>
<!-- \\Ant\\Guzzle\\Plugin\\QueryPluging&#45;&gt;\\Symfony\\Component\\EventDispatcher\\EventSubscriberInterface -->
<g id="edge11" class="edge"><title>\\Ant\\Guzzle\\Plugin\\QueryPluging&#45;&gt;\\Symfony\\Component\\EventDispatcher\\EventSubscriberInterface</title>
<path fill="none" stroke="black" stroke-dasharray="1,5" d="M1080.02,-861.776C1062.28,-843.426 1036.69,-813.451 1024,-782.067 971.771,-652.858 1052.08,-256.054 952,-159.067 890.053,-99.0359 786.351,-101.379 713.403,-112.825"/>
<polygon fill="none" stroke="black" points="712.616,-109.408 703.322,-114.495 713.759,-116.314 712.616,-109.408"/>
</g>
<!-- \\Ant\\Guzzle\\Plugin\\AcceptHeaderPluging -->
<g id="node10" class="node"><title>\\Ant\\Guzzle\\Plugin\\AcceptHeaderPluging</title>
<polygon fill="none" stroke="black" points="1165,-1006.07 1033,-1006.07 1033,-970.067 1165,-970.067 1165,-1006.07"/>
<text text-anchor="middle" x="1099" y="-985.167" font-family="Times Roman,serif" font-size="11.00">AcceptHeaderPluging</text>
</g>
<!-- \\Ant\\Guzzle\\Plugin\\AcceptHeaderPluging&#45;&gt;\\Symfony\\Component\\EventDispatcher\\EventSubscriberInterface -->
<g id="edge19" class="edge"><title>\\Ant\\Guzzle\\Plugin\\AcceptHeaderPluging&#45;&gt;\\Symfony\\Component\\EventDispatcher\\EventSubscriberInterface</title>
<path fill="none" stroke="black" stroke-dasharray="1,5" d="M1033.11,-970.029C1029.71,-967.432 1026.62,-964.463 1024,-961.067 914.659,-819.421 1078.9,-285.223 952,-159.067 890.35,-97.778 785.351,-100.795 712.073,-112.723"/>
<polygon fill="none" stroke="black" points="711.216,-109.319 701.952,-114.46 712.399,-116.218 711.216,-109.319"/>
</g>
<!-- \\Ant\\Guzzle\\Plugin\\OAuth2Plugin -->
<g id="node11" class="node"><title>\\Ant\\Guzzle\\Plugin\\OAuth2Plugin</title>
<polygon fill="none" stroke="black" points="1144,-952.067 1054,-952.067 1054,-916.067 1144,-916.067 1144,-952.067"/>
<text text-anchor="middle" x="1099" y="-931.167" font-family="Times Roman,serif" font-size="11.00">OAuth2Plugin</text>
</g>
<!-- \\Ant\\Guzzle\\Plugin\\OAuth2Plugin&#45;&gt;\\Symfony\\Component\\EventDispatcher\\EventSubscriberInterface -->
<g id="edge31" class="edge"><title>\\Ant\\Guzzle\\Plugin\\OAuth2Plugin&#45;&gt;\\Symfony\\Component\\EventDispatcher\\EventSubscriberInterface</title>
<path fill="none" stroke="black" stroke-dasharray="1,5" d="M1053.76,-926.732C1042.42,-922.738 1031.39,-916.574 1024,-907.067 921.536,-775.207 1070.8,-276.418 952,-159.067 890.248,-98.0706 785.519,-100.942 712.32,-112.761"/>
<polygon fill="none" stroke="black" points="711.479,-109.354 702.208,-114.482 712.654,-116.254 711.479,-109.354"/>
</g>
<!-- \\Ant\\ChateaClient\\Service\\Client\\ChateaGratisAppClient -->
<g id="node15" class="node"><title>\\Ant\\ChateaClient\\Service\\Client\\ChateaGratisAppClient</title>
<polygon fill="none" stroke="black" points="1169,-748.067 1029,-748.067 1029,-712.067 1169,-712.067 1169,-748.067"/>
<text text-anchor="middle" x="1099" y="-727.167" font-family="Times Roman,serif" font-size="11.00">ChateaGratisAppClient</text>
</g>
<!-- \\Ant\\ChateaClient\\Service\\Client\\Client -->
<g id="node18" class="node"><title>\\Ant\\ChateaClient\\Service\\Client\\Client</title>
<polygon fill="none" stroke="black" points="657,-694.067 603,-694.067 603,-658.067 657,-658.067 657,-694.067"/>
<text text-anchor="middle" x="630" y="-673.167" font-family="Times Roman,serif" font-size="11.00">Client</text>
</g>
<!-- \\Ant\\ChateaClient\\Service\\Client\\ChateaGratisAppClient&#45;&gt;\\Ant\\ChateaClient\\Service\\Client\\Client -->
<g id="edge13" class="edge"><title>\\Ant\\ChateaClient\\Service\\Client\\ChateaGratisAppClient&#45;&gt;\\Ant\\ChateaClient\\Service\\Client\\Client</title>
<path fill="none" stroke="black" d="M1028.79,-721.983C927.99,-710.377 745.812,-689.402 667.472,-680.382"/>
<polygon fill="none" stroke="black" points="667.461,-676.857 657.126,-679.19 666.66,-683.811 667.461,-676.857"/>
</g>
<!-- \\Ant\\ChateaClient\\Service\\Client\\AuthenticationException -->
<g id="node16" class="node"><title>\\Ant\\ChateaClient\\Service\\Client\\AuthenticationException</title>
<polygon fill="none" stroke="black" points="1173,-478.067 1025,-478.067 1025,-442.067 1173,-442.067 1173,-478.067"/>
<text text-anchor="middle" x="1099" y="-457.167" font-family="Times Roman,serif" font-size="11.00">AuthenticationException</text>
</g>
<!-- \\Exception -->
<g id="node32" class="node"><title>\\Exception</title>
<ellipse fill="none" stroke="black" cx="630" cy="-24.0671" rx="61.8445" ry="18"/>
<text text-anchor="middle" x="630" y="-19.9671" font-family="Times Roman,serif" font-size="14.00" fill="gray">\Exception</text>
</g>
<!-- \\Ant\\ChateaClient\\Service\\Client\\AuthenticationException&#45;&gt;\\Exception -->
<g id="edge15" class="edge"><title>\\Ant\\ChateaClient\\Service\\Client\\AuthenticationException&#45;&gt;\\Exception</title>
<path fill="none" stroke="black" d="M1047.51,-441.95C1038.55,-436.757 1030.16,-430.221 1024,-422.067 922.784,-288.024 1077.01,-163.251 952,-51.0671 879.872,13.6611 758.458,3.32487 687.122,-10.2419"/>
<polygon fill="none" stroke="black" points="686.098,-6.87677 676.972,-12.2585 687.463,-13.7426 686.098,-6.87677"/>
</g>
<!-- \\Ant\\ChateaClient\\Service\\Client\\ChateaGratisClient -->
<g id="node17" class="node"><title>\\Ant\\ChateaClient\\Service\\Client\\ChateaGratisClient</title>
<polygon fill="none" stroke="black" points="1158,-694.067 1040,-694.067 1040,-658.067 1158,-658.067 1158,-694.067"/>
<text text-anchor="middle" x="1099" y="-673.167" font-family="Times Roman,serif" font-size="11.00">ChateaGratisClient</text>
</g>
<!-- \\Ant\\ChateaClient\\Service\\Client\\ChateaGratisClient&#45;&gt;\\Ant\\ChateaClient\\Service\\Client\\Client -->
<g id="edge17" class="edge"><title>\\Ant\\ChateaClient\\Service\\Client\\ChateaGratisClient&#45;&gt;\\Ant\\ChateaClient\\Service\\Client\\Client</title>
<path fill="none" stroke="black" d="M1039.12,-676.067C940.927,-676.067 748.48,-676.067 667.414,-676.067"/>
<polygon fill="none" stroke="black" points="667.187,-672.567 657.187,-676.067 667.187,-679.567 667.187,-672.567"/>
</g>
<!-- \\Guzzle\\Service\\Client -->
<g id="node36" class="node"><title>\\Guzzle\\Service\\Client</title>
<ellipse fill="none" stroke="black" cx="118" cy="-676.067" rx="118.13" ry="18"/>
<text text-anchor="middle" x="118" y="-671.967" font-family="Times Roman,serif" font-size="14.00" fill="gray">\Guzzle\Service\Client</text>
</g>
<!-- \\Ant\\ChateaClient\\Service\\Client\\Client&#45;&gt;\\Guzzle\\Service\\Client -->
<g id="edge21" class="edge"><title>\\Ant\\ChateaClient\\Service\\Client\\Client&#45;&gt;\\Guzzle\\Service\\Client</title>
<path fill="none" stroke="black" d="M602.834,-676.067C537.18,-676.067 366.446,-676.067 246.243,-676.067"/>
<polygon fill="none" stroke="black" points="246.229,-672.567 236.229,-676.067 246.229,-679.567 246.229,-672.567"/>
</g>
<!-- \\Ant\\ChateaClient\\Service\\Client\\ChateaOAuth2Client -->
<g id="node19" class="node"><title>\\Ant\\ChateaClient\\Service\\Client\\ChateaOAuth2Client</title>
<polygon fill="none" stroke="black" points="1163,-640.067 1035,-640.067 1035,-604.067 1163,-604.067 1163,-640.067"/>
<text text-anchor="middle" x="1099" y="-619.167" font-family="Times Roman,serif" font-size="11.00">ChateaOAuth2Client</text>
</g>
<!-- \\Ant\\ChateaClient\\Service\\Client\\ChateaOAuth2Client&#45;&gt;\\Ant\\ChateaClient\\Service\\Client\\Client -->
<g id="edge23" class="edge"><title>\\Ant\\ChateaClient\\Service\\Client\\ChateaOAuth2Client&#45;&gt;\\Ant\\ChateaClient\\Service\\Client\\Client</title>
<path fill="none" stroke="black" d="M1034.77,-629.462C935.252,-640.921 746.964,-662.6 667.201,-671.784"/>
<polygon fill="none" stroke="black" points="666.666,-668.322 657.132,-672.943 667.467,-675.276 666.666,-668.322"/>
</g>
<!-- \\Ant\\ChateaClient\\Service\\Client\\FileStore -->
<g id="node20" class="node"><title>\\Ant\\ChateaClient\\Service\\Client\\FileStore</title>
<polygon fill="none" stroke="black" points="1131,-586.067 1067,-586.067 1067,-550.067 1131,-550.067 1131,-586.067"/>
<text text-anchor="middle" x="1099" y="-565.167" font-family="Times Roman,serif" font-size="11.00">FileStore</text>
</g>
<!-- \\Ant\\ChateaClient\\Service\\Client\\StoreInterface -->
<g id="node21" class="node"><title>\\Ant\\ChateaClient\\Service\\Client\\StoreInterface</title>
<polygon fill="none" stroke="black" points="677,-586.067 583,-586.067 583,-550.067 677,-550.067 677,-586.067"/>
<text text-anchor="middle" x="630" y="-565.167" font-family="Times Roman,serif" font-size="11.00">StoreInterface</text>
</g>
<!-- \\Ant\\ChateaClient\\Service\\Client\\FileStore&#45;&gt;\\Ant\\ChateaClient\\Service\\Client\\StoreInterface -->
<g id="edge27" class="edge"><title>\\Ant\\ChateaClient\\Service\\Client\\FileStore&#45;&gt;\\Ant\\ChateaClient\\Service\\Client\\StoreInterface</title>
<path fill="none" stroke="black" stroke-dasharray="1,5" d="M1066.76,-568.067C988.511,-568.067 787.628,-568.067 687.922,-568.067"/>
<polygon fill="none" stroke="black" points="687.726,-564.567 677.726,-568.067 687.726,-571.567 687.726,-564.567"/>
</g>
<!-- \\Ant\\ChateaClient\\Service\\Client\\ClientInterface -->
<g id="node22" class="node"><title>\\Ant\\ChateaClient\\Service\\Client\\ClientInterface</title>
<polygon fill="none" stroke="black" points="1146,-532.067 1052,-532.067 1052,-496.067 1146,-496.067 1146,-532.067"/>
<text text-anchor="middle" x="1099" y="-511.167" font-family="Times Roman,serif" font-size="11.00">ClientInterface</text>
</g>
<!-- \\Guzzle\\Service\\ClientInterface -->
<g id="node46" class="node"><title>\\Guzzle\\Service\\ClientInterface</title>
<ellipse fill="none" stroke="black" cx="630" cy="-78.0671" rx="160.018" ry="18"/>
<text text-anchor="middle" x="630" y="-73.9671" font-family="Times Roman,serif" font-size="14.00" fill="gray">\Guzzle\Service\ClientInterface</text>
</g>
<!-- \\Ant\\ChateaClient\\Service\\Client\\ClientInterface&#45;&gt;\\Guzzle\\Service\\ClientInterface -->
<g id="edge37" class="edge"><title>\\Ant\\ChateaClient\\Service\\Client\\ClientInterface&#45;&gt;\\Guzzle\\Service\\ClientInterface</title>
<path fill="none" stroke="black" d="M1051.19,-505.127C1040.95,-501.145 1031.09,-495.388 1024,-487.067 911.94,-355.572 1080.27,-220.804 952,-105.067 887.259,-46.6518 782.425,-49.22 710.054,-60.2514"/>
<polygon fill="none" stroke="black" points="709.382,-56.8144 700.065,-61.8586 710.494,-63.7255 709.382,-56.8144"/>
</g>
<!-- \\Ant\\ChateaClient\\Client\\Api -->
<g id="node24" class="node"><title>\\Ant\\ChateaClient\\Client\\Api</title>
<polygon fill="none" stroke="black" points="1126,-388.067 1072,-388.067 1072,-352.067 1126,-352.067 1126,-388.067"/>
<text text-anchor="middle" x="1099" y="-367.167" font-family="Times Roman,serif" font-size="11.00">Api</text>
</g>
<!-- \\Ant\\ChateaClient\\Client\\ApiInterface -->
<g id="node27" class="node"><title>\\Ant\\ChateaClient\\Client\\ApiInterface</title>
<polygon fill="none" stroke="black" points="670,-388.067 590,-388.067 590,-352.067 670,-352.067 670,-388.067"/>
<text text-anchor="middle" x="630" y="-367.167" font-family="Times Roman,serif" font-size="11.00">ApiInterface</text>
</g>
<!-- \\Ant\\ChateaClient\\Client\\Api&#45;&gt;\\Ant\\ChateaClient\\Client\\ApiInterface -->
<g id="edge25" class="edge"><title>\\Ant\\ChateaClient\\Client\\Api&#45;&gt;\\Ant\\ChateaClient\\Client\\ApiInterface</title>
<path fill="none" stroke="black" stroke-dasharray="1,5" d="M1071.76,-370.067C995.664,-370.067 779.966,-370.067 680.896,-370.067"/>
<polygon fill="none" stroke="black" points="680.827,-366.567 670.827,-370.067 680.827,-373.567 680.827,-366.567"/>
</g>
<!-- \\Ant\\ChateaClient\\Client\\Authentication -->
<g id="node25" class="node"><title>\\Ant\\ChateaClient\\Client\\Authentication</title>
<polygon fill="none" stroke="black" points="1146,-334.067 1052,-334.067 1052,-298.067 1146,-298.067 1146,-334.067"/>
<text text-anchor="middle" x="1099" y="-313.167" font-family="Times Roman,serif" font-size="11.00">Authentication</text>
</g>
<!-- \\Ant\\ChateaClient\\Client\\ApiException -->
<g id="node26" class="node"><title>\\Ant\\ChateaClient\\Client\\ApiException</title>
<polygon fill="none" stroke="black" points="1142,-280.067 1056,-280.067 1056,-244.067 1142,-244.067 1142,-280.067"/>
<text text-anchor="middle" x="1099" y="-259.167" font-family="Times Roman,serif" font-size="11.00">ApiException</text>
</g>
<!-- \\Ant\\ChateaClient\\Client\\ApiException&#45;&gt;\\Exception -->
<g id="edge35" class="edge"><title>\\Ant\\ChateaClient\\Client\\ApiException&#45;&gt;\\Exception</title>
<path fill="none" stroke="black" d="M1092.57,-243.875C1076.49,-201.442 1030.13,-96.1104 952,-51.0671 872.489,-5.22705 763.096,-6.94983 694.488,-14.1651"/>
<polygon fill="none" stroke="black" points="693.801,-10.7201 684.254,-15.314 694.582,-17.6764 693.801,-10.7201"/>
</g>
</g>
</svg>
