<?xml version="1.0" encoding="UTF-8" standalone="no"?>
<!DOCTYPE svg PUBLIC "-//W3C//DTD SVG 1.1//EN"
 "http://www.w3.org/Graphics/SVG/1.1/DTD/svg11.dtd">
<!-- Generated by graphviz version 2.26.3 (20100126.1600)
 -->
<!-- Title: G Pages: 1 -->
<svg width="1230pt" height="1224pt"
 viewBox="0.00 0.00 1230.00 1223.59" xmlns="http://www.w3.org/2000/svg" xmlns:xlink="http://www.w3.org/1999/xlink">
<g id="graph1" class="graph" transform="scale(1 1) rotate(0) translate(4 1219.59)">
<title>G</title>
<polygon fill="white" stroke="white" points="-4,5 -4,-1219.59 1227,-1219.59 1227,5 -4,5"/>
<g id="graph2" class="cluster"><title>cluster_Global</title>
<polyline fill="none" stroke="gray" points="554,-209.586 1202,-209.586 "/>
<path fill="none" stroke="gray" d="M1202,-209.586C1208,-209.586 1214,-215.586 1214,-221.586"/>
<polyline fill="none" stroke="gray" points="1214,-221.586 1214,-1195.59 "/>
<path fill="none" stroke="gray" d="M1214,-1195.59C1214,-1201.59 1208,-1207.59 1202,-1207.59"/>
<polyline fill="none" stroke="gray" points="1202,-1207.59 554,-1207.59 "/>
<path fill="none" stroke="gray" d="M554,-1207.59C548,-1207.59 542,-1201.59 542,-1195.59"/>
<polyline fill="none" stroke="gray" points="542,-1195.59 542,-221.586 "/>
<path fill="none" stroke="gray" d="M542,-221.586C542,-215.586 548,-209.586 554,-209.586"/>
<text text-anchor="middle" x="878" y="-1193.69" font-family="Times Roman,serif" font-size="11.00" fill="gray">\</text>
</g>
<g id="graph3" class="cluster"><title>cluster_\Ant</title>
<polyline fill="none" stroke="gray" points="562,-217.586 1194,-217.586 "/>
<path fill="none" stroke="gray" d="M1194,-217.586C1200,-217.586 1206,-223.586 1206,-229.586"/>
<polyline fill="none" stroke="gray" points="1206,-229.586 1206,-1165.59 "/>
<path fill="none" stroke="gray" d="M1206,-1165.59C1206,-1171.59 1200,-1177.59 1194,-1177.59"/>
<polyline fill="none" stroke="gray" points="1194,-1177.59 562,-1177.59 "/>
<path fill="none" stroke="gray" d="M562,-1177.59C556,-1177.59 550,-1171.59 550,-1165.59"/>
<polyline fill="none" stroke="gray" points="550,-1165.59 550,-229.586 "/>
<path fill="none" stroke="gray" d="M550,-229.586C550,-223.586 556,-217.586 562,-217.586"/>
<text text-anchor="middle" x="878" y="-1163.69" font-family="Times Roman,serif" font-size="11.00" fill="gray">Ant</text>
</g>
<g id="graph4" class="cluster"><title>cluster_\Ant\ChateaClient</title>
<polyline fill="none" stroke="gray" points="570,-537.586 1186,-537.586 "/>
<path fill="none" stroke="gray" d="M1186,-537.586C1192,-537.586 1198,-543.586 1198,-549.586"/>
<polyline fill="none" stroke="gray" points="1198,-549.586 1198,-1135.59 "/>
<path fill="none" stroke="gray" d="M1198,-1135.59C1198,-1141.59 1192,-1147.59 1186,-1147.59"/>
<polyline fill="none" stroke="gray" points="1186,-1147.59 570,-1147.59 "/>
<path fill="none" stroke="gray" d="M570,-1147.59C564,-1147.59 558,-1141.59 558,-1135.59"/>
<polyline fill="none" stroke="gray" points="558,-1135.59 558,-549.586 "/>
<path fill="none" stroke="gray" d="M558,-549.586C558,-543.586 564,-537.586 570,-537.586"/>
<text text-anchor="middle" x="878" y="-1133.69" font-family="Times Roman,serif" font-size="11.00" fill="gray">ChateaClient</text>
</g>
<g id="graph5" class="cluster"><title>cluster_\Ant\ChateaClient\Client</title>
<polyline fill="none" stroke="gray" points="593,-935.586 1143,-935.586 "/>
<path fill="none" stroke="gray" d="M1143,-935.586C1149,-935.586 1155,-941.586 1155,-947.586"/>
<polyline fill="none" stroke="gray" points="1155,-947.586 1155,-1105.59 "/>
<path fill="none" stroke="gray" d="M1155,-1105.59C1155,-1111.59 1149,-1117.59 1143,-1117.59"/>
<polyline fill="none" stroke="gray" points="1143,-1117.59 593,-1117.59 "/>
<path fill="none" stroke="gray" d="M593,-1117.59C587,-1117.59 581,-1111.59 581,-1105.59"/>
<polyline fill="none" stroke="gray" points="581,-1105.59 581,-947.586 "/>
<path fill="none" stroke="gray" d="M581,-947.586C581,-941.586 587,-935.586 593,-935.586"/>
<text text-anchor="middle" x="868" y="-1103.69" font-family="Times Roman,serif" font-size="11.00" fill="gray">Client</text>
</g>
<g id="graph6" class="cluster"><title>cluster_\Ant\ChateaClient\Service</title>
<polyline fill="none" stroke="gray" points="578,-545.586 1178,-545.586 "/>
<path fill="none" stroke="gray" d="M1178,-545.586C1184,-545.586 1190,-551.586 1190,-557.586"/>
<polyline fill="none" stroke="gray" points="1190,-557.586 1190,-915.586 "/>
<path fill="none" stroke="gray" d="M1190,-915.586C1190,-921.586 1184,-927.586 1178,-927.586"/>
<polyline fill="none" stroke="gray" points="1178,-927.586 578,-927.586 "/>
<path fill="none" stroke="gray" d="M578,-927.586C572,-927.586 566,-921.586 566,-915.586"/>
<polyline fill="none" stroke="gray" points="566,-915.586 566,-557.586 "/>
<path fill="none" stroke="gray" d="M566,-557.586C566,-551.586 572,-545.586 578,-545.586"/>
<text text-anchor="middle" x="878" y="-913.686" font-family="Times Roman,serif" font-size="11.00" fill="gray">Service</text>
</g>
<g id="graph7" class="cluster"><title>cluster_\Ant\ChateaClient\Service\Client</title>
<polyline fill="none" stroke="gray" points="586,-553.586 1170,-553.586 "/>
<path fill="none" stroke="gray" d="M1170,-553.586C1176,-553.586 1182,-559.586 1182,-565.586"/>
<polyline fill="none" stroke="gray" points="1182,-565.586 1182,-885.586 "/>
<path fill="none" stroke="gray" d="M1182,-885.586C1182,-891.586 1176,-897.586 1170,-897.586"/>
<polyline fill="none" stroke="gray" points="1170,-897.586 586,-897.586 "/>
<path fill="none" stroke="gray" d="M586,-897.586C580,-897.586 574,-891.586 574,-885.586"/>
<polyline fill="none" stroke="gray" points="574,-885.586 574,-565.586 "/>
<path fill="none" stroke="gray" d="M574,-565.586C574,-559.586 580,-553.586 586,-553.586"/>
<text text-anchor="middle" x="878" y="-883.686" font-family="Times Roman,serif" font-size="11.00" fill="gray">Client</text>
</g>
<g id="graph8" class="cluster"><title>cluster_\Ant\Guzzle</title>
<polyline fill="none" stroke="gray" points="575,-225.586 1169,-225.586 "/>
<path fill="none" stroke="gray" d="M1169,-225.586C1175,-225.586 1181,-231.586 1181,-237.586"/>
<polyline fill="none" stroke="gray" points="1181,-237.586 1181,-517.586 "/>
<path fill="none" stroke="gray" d="M1181,-517.586C1181,-523.586 1175,-529.586 1169,-529.586"/>
<polyline fill="none" stroke="gray" points="1169,-529.586 575,-529.586 "/>
<path fill="none" stroke="gray" d="M575,-529.586C569,-529.586 563,-523.586 563,-517.586"/>
<polyline fill="none" stroke="gray" points="563,-517.586 563,-237.586 "/>
<path fill="none" stroke="gray" d="M563,-237.586C563,-231.586 569,-225.586 575,-225.586"/>
<text text-anchor="middle" x="872" y="-515.686" font-family="Times Roman,serif" font-size="11.00" fill="gray">Guzzle</text>
</g>
<g id="graph9" class="cluster"><title>cluster_\Ant\Guzzle\Plugin</title>
<polyline fill="none" stroke="gray" points="583,-233.586 1161,-233.586 "/>
<path fill="none" stroke="gray" d="M1161,-233.586C1167,-233.586 1173,-239.586 1173,-245.586"/>
<polyline fill="none" stroke="gray" points="1173,-245.586 1173,-487.586 "/>
<path fill="none" stroke="gray" d="M1173,-487.586C1173,-493.586 1167,-499.586 1161,-499.586"/>
<polyline fill="none" stroke="gray" points="1161,-499.586 583,-499.586 "/>
<path fill="none" stroke="gray" d="M583,-499.586C577,-499.586 571,-493.586 571,-487.586"/>
<polyline fill="none" stroke="gray" points="571,-487.586 571,-245.586 "/>
<path fill="none" stroke="gray" d="M571,-245.586C571,-239.586 577,-233.586 583,-233.586"/>
<text text-anchor="middle" x="872" y="-485.686" font-family="Times Roman,serif" font-size="11.00" fill="gray">Plugin</text>
</g>
<g id="graph10" class="cluster"><title>cluster_\Ant\Guzzle\Plugin\Token</title>
<polyline fill="none" stroke="gray" points="591,-341.586 1137,-341.586 "/>
<path fill="none" stroke="gray" d="M1137,-341.586C1143,-341.586 1149,-347.586 1149,-353.586"/>
<polyline fill="none" stroke="gray" points="1149,-353.586 1149,-457.586 "/>
<path fill="none" stroke="gray" d="M1149,-457.586C1149,-463.586 1143,-469.586 1137,-469.586"/>
<polyline fill="none" stroke="gray" points="1137,-469.586 591,-469.586 "/>
<path fill="none" stroke="gray" d="M591,-469.586C585,-469.586 579,-463.586 579,-457.586"/>
<polyline fill="none" stroke="gray" points="579,-457.586 579,-353.586 "/>
<path fill="none" stroke="gray" d="M579,-353.586C579,-347.586 585,-341.586 591,-341.586"/>
<text text-anchor="middle" x="864" y="-455.686" font-family="Times Roman,serif" font-size="11.00" fill="gray">Token</text>
</g>
<!-- \\Ant\\ChateaClient\\Client\\Authentication -->
<g id="node5" class="node"><title>\\Ant\\ChateaClient\\Client\\Authentication</title>
<polygon fill="none" stroke="black" points="1146,-1087.59 1052,-1087.59 1052,-1051.59 1146,-1051.59 1146,-1087.59"/>
<text text-anchor="middle" x="1099" y="-1066.69" font-family="Times Roman,serif" font-size="11.00">Authentication</text>
</g>
<!-- \\Ant\\ChateaClient\\Client\\Api -->
<g id="node6" class="node"><title>\\Ant\\ChateaClient\\Client\\Api</title>
<polygon fill="none" stroke="black" points="1126,-1033.59 1072,-1033.59 1072,-997.586 1126,-997.586 1126,-1033.59"/>
<text text-anchor="middle" x="1099" y="-1012.69" font-family="Times Roman,serif" font-size="11.00">Api</text>
</g>
<!-- \\Ant\\ChateaClient\\Client\\ApiInterface -->
<g id="node8" class="node"><title>\\Ant\\ChateaClient\\Client\\ApiInterface</title>
<polygon fill="none" stroke="black" points="670,-1033.59 590,-1033.59 590,-997.586 670,-997.586 670,-1033.59"/>
<text text-anchor="middle" x="630" y="-1012.69" font-family="Times Roman,serif" font-size="11.00">ApiInterface</text>
</g>
<!-- \\Ant\\ChateaClient\\Client\\Api&#45;&gt;\\Ant\\ChateaClient\\Client\\ApiInterface -->
<g id="edge11" class="edge"><title>\\Ant\\ChateaClient\\Client\\Api&#45;&gt;\\Ant\\ChateaClient\\Client\\ApiInterface</title>
<path fill="none" stroke="black" stroke-dasharray="1,5" d="M1071.76,-1015.59C995.664,-1015.59 779.966,-1015.59 680.896,-1015.59"/>
<polygon fill="none" stroke="black" points="680.827,-1012.09 670.827,-1015.59 680.827,-1019.09 680.827,-1012.09"/>
</g>
<!-- \\Ant\\ChateaClient\\Client\\ApiException -->
<g id="node7" class="node"><title>\\Ant\\ChateaClient\\Client\\ApiException</title>
<polygon fill="none" stroke="black" points="1142,-979.586 1056,-979.586 1056,-943.586 1142,-943.586 1142,-979.586"/>
<text text-anchor="middle" x="1099" y="-958.686" font-family="Times Roman,serif" font-size="11.00">ApiException</text>
</g>
<!-- \\Exception -->
<g id="node29" class="node"><title>\\Exception</title>
<ellipse fill="none" stroke="black" cx="630" cy="-183.586" rx="61.8445" ry="18"/>
<text text-anchor="middle" x="630" y="-179.486" font-family="Times Roman,serif" font-size="14.00" fill="gray">\Exception</text>
</g>
<!-- \\Ant\\ChateaClient\\Client\\ApiException&#45;&gt;\\Exception -->
<g id="edge13" class="edge"><title>\\Ant\\ChateaClient\\Client\\ApiException&#45;&gt;\\Exception</title>
<path fill="none" stroke="black" d="M1066.28,-943.551C1050.89,-933.309 1033.79,-919.035 1024,-901.586 900.303,-681.23 1100.03,-542.394 952,-337.586 890.165,-252.031 768.041,-212.147 693.246,-195.036"/>
<polygon fill="none" stroke="black" points="693.988,-191.615 683.468,-192.867 692.472,-198.449 693.988,-191.615"/>
</g>
<!-- \\Ant\\ChateaClient\\Service\\Client\\AuthenticationException -->
<g id="node11" class="node"><title>\\Ant\\ChateaClient\\Service\\Client\\AuthenticationException</title>
<polygon fill="none" stroke="black" points="1173,-651.586 1025,-651.586 1025,-615.586 1173,-615.586 1173,-651.586"/>
<text text-anchor="middle" x="1099" y="-630.686" font-family="Times Roman,serif" font-size="11.00">AuthenticationException</text>
</g>
<!-- \\Ant\\ChateaClient\\Service\\Client\\AuthenticationException&#45;&gt;\\Exception -->
<g id="edge15" class="edge"><title>\\Ant\\ChateaClient\\Service\\Client\\AuthenticationException&#45;&gt;\\Exception</title>
<path fill="none" stroke="black" d="M1034.45,-615.47C1030.63,-612.892 1027.09,-609.948 1024,-606.586 940.239,-515.474 1031.08,-432.793 952,-337.586 884.407,-256.206 763.765,-214.879 690.889,-196.376"/>
<polygon fill="none" stroke="black" points="691.481,-192.918 680.933,-193.915 689.801,-199.713 691.481,-192.918"/>
</g>
<!-- \\Ant\\ChateaClient\\Service\\Client\\ChateaGratisAppClient -->
<g id="node12" class="node"><title>\\Ant\\ChateaClient\\Service\\Client\\ChateaGratisAppClient</title>
<polygon fill="none" stroke="black" points="1169,-759.586 1029,-759.586 1029,-723.586 1169,-723.586 1169,-759.586"/>
<text text-anchor="middle" x="1099" y="-738.686" font-family="Times Roman,serif" font-size="11.00">ChateaGratisAppClient</text>
</g>
<!-- \\Ant\\ChateaClient\\Service\\Client\\Client -->
<g id="node13" class="node"><title>\\Ant\\ChateaClient\\Service\\Client\\Client</title>
<polygon fill="none" stroke="black" points="657,-813.586 603,-813.586 603,-777.586 657,-777.586 657,-813.586"/>
<text text-anchor="middle" x="630" y="-792.686" font-family="Times Roman,serif" font-size="11.00">Client</text>
</g>
<!-- \\Ant\\ChateaClient\\Service\\Client\\ChateaGratisAppClient&#45;&gt;\\Ant\\ChateaClient\\Service\\Client\\Client -->
<g id="edge17" class="edge"><title>\\Ant\\ChateaClient\\Service\\Client\\ChateaGratisAppClient&#45;&gt;\\Ant\\ChateaClient\\Service\\Client\\Client</title>
<path fill="none" stroke="black" d="M1028.79,-749.671C927.99,-761.276 745.812,-782.252 667.472,-791.272"/>
<polygon fill="none" stroke="black" points="666.66,-787.842 657.126,-792.463 667.461,-794.796 666.66,-787.842"/>
</g>
<!-- \\Guzzle\\Service\\Client -->
<g id="node33" class="node"><title>\\Guzzle\\Service\\Client</title>
<ellipse fill="none" stroke="black" cx="118" cy="-795.586" rx="118.13" ry="18"/>
<text text-anchor="middle" x="118" y="-791.486" font-family="Times Roman,serif" font-size="14.00" fill="gray">\Guzzle\Service\Client</text>
</g>
<!-- \\Ant\\ChateaClient\\Service\\Client\\Client&#45;&gt;\\Guzzle\\Service\\Client -->
<g id="edge19" class="edge"><title>\\Ant\\ChateaClient\\Service\\Client\\Client&#45;&gt;\\Guzzle\\Service\\Client</title>
<path fill="none" stroke="black" d="M602.834,-795.586C537.18,-795.586 366.446,-795.586 246.243,-795.586"/>
<polygon fill="none" stroke="black" points="246.229,-792.086 236.229,-795.586 246.229,-799.086 246.229,-792.086"/>
</g>
<!-- \\Ant\\ChateaClient\\Service\\Client\\ChateaGratisClient -->
<g id="node14" class="node"><title>\\Ant\\ChateaClient\\Service\\Client\\ChateaGratisClient</title>
<polygon fill="none" stroke="black" points="1158,-867.586 1040,-867.586 1040,-831.586 1158,-831.586 1158,-867.586"/>
<text text-anchor="middle" x="1099" y="-846.686" font-family="Times Roman,serif" font-size="11.00">ChateaGratisClient</text>
</g>
<!-- \\Ant\\ChateaClient\\Service\\Client\\ChateaGratisClient&#45;&gt;\\Ant\\ChateaClient\\Service\\Client\\Client -->
<g id="edge21" class="edge"><title>\\Ant\\ChateaClient\\Service\\Client\\ChateaGratisClient&#45;&gt;\\Ant\\ChateaClient\\Service\\Client\\Client</title>
<path fill="none" stroke="black" d="M1039.12,-842.692C940.927,-831.386 748.48,-809.228 667.414,-799.894"/>
<polygon fill="none" stroke="black" points="667.522,-796.384 657.187,-798.717 666.721,-803.338 667.522,-796.384"/>
</g>
<!-- \\Ant\\ChateaClient\\Service\\Client\\FileStore -->
<g id="node15" class="node"><title>\\Ant\\ChateaClient\\Service\\Client\\FileStore</title>
<polygon fill="none" stroke="black" points="1131,-705.586 1067,-705.586 1067,-669.586 1131,-669.586 1131,-705.586"/>
<text text-anchor="middle" x="1099" y="-684.686" font-family="Times Roman,serif" font-size="11.00">FileStore</text>
</g>
<!-- \\Ant\\ChateaClient\\Service\\Client\\StoreInterface -->
<g id="node17" class="node"><title>\\Ant\\ChateaClient\\Service\\Client\\StoreInterface</title>
<polygon fill="none" stroke="black" points="677,-705.586 583,-705.586 583,-669.586 677,-669.586 677,-705.586"/>
<text text-anchor="middle" x="630" y="-684.686" font-family="Times Roman,serif" font-size="11.00">StoreInterface</text>
</g>
<!-- \\Ant\\ChateaClient\\Service\\Client\\FileStore&#45;&gt;\\Ant\\ChateaClient\\Service\\Client\\StoreInterface -->
<g id="edge23" class="edge"><title>\\Ant\\ChateaClient\\Service\\Client\\FileStore&#45;&gt;\\Ant\\ChateaClient\\Service\\Client\\StoreInterface</title>
<path fill="none" stroke="black" stroke-dasharray="1,5" d="M1066.76,-687.586C988.511,-687.586 787.628,-687.586 687.922,-687.586"/>
<polygon fill="none" stroke="black" points="687.726,-684.086 677.726,-687.586 687.726,-691.086 687.726,-684.086"/>
</g>
<!-- \\Ant\\ChateaClient\\Service\\Client\\ChateaOAuth2Client -->
<g id="node16" class="node"><title>\\Ant\\ChateaClient\\Service\\Client\\ChateaOAuth2Client</title>
<polygon fill="none" stroke="black" points="1163,-813.586 1035,-813.586 1035,-777.586 1163,-777.586 1163,-813.586"/>
<text text-anchor="middle" x="1099" y="-792.686" font-family="Times Roman,serif" font-size="11.00">ChateaOAuth2Client</text>
</g>
<!-- \\Ant\\ChateaClient\\Service\\Client\\ChateaOAuth2Client&#45;&gt;\\Ant\\ChateaClient\\Service\\Client\\Client -->
<g id="edge25" class="edge"><title>\\Ant\\ChateaClient\\Service\\Client\\ChateaOAuth2Client&#45;&gt;\\Ant\\ChateaClient\\Service\\Client\\Client</title>
<path fill="none" stroke="black" d="M1034.77,-795.586C935.252,-795.586 746.964,-795.586 667.201,-795.586"/>
<polygon fill="none" stroke="black" points="667.132,-792.086 657.132,-795.586 667.132,-799.086 667.132,-792.086"/>
</g>
<!-- \\Ant\\ChateaClient\\Service\\Client\\ClientInterface -->
<g id="node18" class="node"><title>\\Ant\\ChateaClient\\Service\\Client\\ClientInterface</title>
<polygon fill="none" stroke="black" points="1146,-597.586 1052,-597.586 1052,-561.586 1146,-561.586 1146,-597.586"/>
<text text-anchor="middle" x="1099" y="-576.686" font-family="Times Roman,serif" font-size="11.00">ClientInterface</text>
</g>
<!-- \\Guzzle\\Service\\ClientInterface -->
<g id="node44" class="node"><title>\\Guzzle\\Service\\ClientInterface</title>
<ellipse fill="none" stroke="black" cx="630" cy="-129.586" rx="160.018" ry="18"/>
<text text-anchor="middle" x="630" y="-125.486" font-family="Times Roman,serif" font-size="14.00" fill="gray">\Guzzle\Service\ClientInterface</text>
</g>
<!-- \\Ant\\ChateaClient\\Service\\Client\\ClientInterface&#45;&gt;\\Guzzle\\Service\\ClientInterface -->
<g id="edge35" class="edge"><title>\\Ant\\ChateaClient\\Service\\Client\\ClientInterface&#45;&gt;\\Guzzle\\Service\\ClientInterface</title>
<path fill="none" stroke="black" d="M1082.74,-561.438C1065.6,-541.357 1039.06,-507.351 1024,-473.586 965.146,-341.64 1061.04,-251.369 952,-156.586 886.997,-100.083 784.149,-101.641 712.228,-111.942"/>
<polygon fill="none" stroke="black" points="711.654,-108.489 702.292,-113.448 712.704,-115.41 711.654,-108.489"/>
</g>
<!-- \\Ant\\Guzzle\\Plugin\\Token\\BearerToken -->
<g id="node22" class="node"><title>\\Ant\\Guzzle\\Plugin\\Token\\BearerToken</title>
<polygon fill="none" stroke="black" points="1140,-439.586 1058,-439.586 1058,-403.586 1140,-403.586 1140,-439.586"/>
<text text-anchor="middle" x="1099" y="-418.686" font-family="Times Roman,serif" font-size="11.00">BearerToken</text>
</g>
<!-- \\Ant\\Guzzle\\Plugin\\Token\\AccessToken -->
<g id="node24" class="node"><title>\\Ant\\Guzzle\\Plugin\\Token\\AccessToken</title>
<polygon fill="none" stroke="black" points="672,-439.586 588,-439.586 588,-403.586 672,-403.586 672,-439.586"/>
<text text-anchor="middle" x="630" y="-418.686" font-family="Times Roman,serif" font-size="11.00">AccessToken</text>
</g>
<!-- \\Ant\\Guzzle\\Plugin\\Token\\BearerToken&#45;&gt;\\Ant\\Guzzle\\Plugin\\Token\\AccessToken -->
<g id="edge31" class="edge"><title>\\Ant\\Guzzle\\Plugin\\Token\\BearerToken&#45;&gt;\\Ant\\Guzzle\\Plugin\\Token\\AccessToken</title>
<path fill="none" stroke="black" stroke-dasharray="1,5" d="M1057.38,-421.586C971.919,-421.586 776.798,-421.586 682.687,-421.586"/>
<polygon fill="none" stroke="black" points="682.54,-418.086 672.54,-421.586 682.54,-425.086 682.54,-418.086"/>
</g>
<!-- \\Ant\\Guzzle\\Plugin\\Token\\MacToken -->
<g id="node23" class="node"><title>\\Ant\\Guzzle\\Plugin\\Token\\MacToken</title>
<polygon fill="none" stroke="black" points="1133,-385.586 1065,-385.586 1065,-349.586 1133,-349.586 1133,-385.586"/>
<text text-anchor="middle" x="1099" y="-364.686" font-family="Times Roman,serif" font-size="11.00">MacToken</text>
</g>
<!-- \\Ant\\Guzzle\\Plugin\\Token\\AcessToken -->
<g id="node42" class="node"><title>\\Ant\\Guzzle\\Plugin\\Token\\AcessToken</title>
<ellipse fill="none" stroke="black" cx="630" cy="-75.5864" rx="189.202" ry="18"/>
<text text-anchor="middle" x="630" y="-71.4864" font-family="Times Roman,serif" font-size="14.00" fill="gray">\Ant\Guzzle\Plugin\Token\AcessToken</text>
</g>
<!-- \\Ant\\Guzzle\\Plugin\\Token\\MacToken&#45;&gt;\\Ant\\Guzzle\\Plugin\\Token\\AcessToken -->
<g id="edge33" class="edge"><title>\\Ant\\Guzzle\\Plugin\\Token\\MacToken&#45;&gt;\\Ant\\Guzzle\\Plugin\\Token\\AcessToken</title>
<path fill="none" stroke="black" stroke-dasharray="1,5" d="M1064.34,-364.644C1050.18,-361.771 1034.67,-356.222 1024,-345.586 944.242,-266.046 1039.36,-173.694 952,-102.586 887.827,-50.3522 790.712,-49.3453 719.916,-57.8753"/>
<polygon fill="none" stroke="black" points="719.139,-54.4466 709.669,-59.1981 720.035,-61.389 719.139,-54.4466"/>
</g>
<!-- \\Ant\\Guzzle\\Plugin\\OAuth2Plugin -->
<g id="node25" class="node"><title>\\Ant\\Guzzle\\Plugin\\OAuth2Plugin</title>
<polygon fill="none" stroke="black" points="1144,-331.586 1054,-331.586 1054,-295.586 1144,-295.586 1144,-331.586"/>
<text text-anchor="middle" x="1099" y="-310.686" font-family="Times Roman,serif" font-size="11.00">OAuth2Plugin</text>
</g>
<!-- \\Symfony\\Component\\EventDispatcher\\EventSubscriberInterface -->
<g id="node38" class="node"><title>\\Symfony\\Component\\EventDispatcher\\EventSubscriberInterface</title>
<ellipse fill="none" stroke="black" cx="630" cy="-21.5864" rx="321.23" ry="18"/>
<text text-anchor="middle" x="630" y="-17.4864" font-family="Times Roman,serif" font-size="14.00" fill="gray">\Symfony\Component\EventDispatcher\EventSubscriberInterface</text>
</g>
<!-- \\Ant\\Guzzle\\Plugin\\OAuth2Plugin&#45;&gt;\\Symfony\\Component\\EventDispatcher\\EventSubscriberInterface -->
<g id="edge27" class="edge"><title>\\Ant\\Guzzle\\Plugin\\OAuth2Plugin&#45;&gt;\\Symfony\\Component\\EventDispatcher\\EventSubscriberInterface</title>
<path fill="none" stroke="black" stroke-dasharray="1,5" d="M1053.77,-304.816C1042.83,-300.821 1032,-295.016 1024,-286.586 947.906,-206.445 1037.91,-118.105 952,-48.5864 890.068,1.53027 797.756,4.35179 727.829,-3.07122"/>
<polygon fill="none" stroke="black" points="727.216,0.381496 717.68,-4.23635 728.014,-6.57282 727.216,0.381496"/>
</g>
<!-- \\Ant\\Guzzle\\Plugin\\AcceptHeaderPluging -->
<g id="node26" class="node"><title>\\Ant\\Guzzle\\Plugin\\AcceptHeaderPluging</title>
<polygon fill="none" stroke="black" points="1165,-277.586 1033,-277.586 1033,-241.586 1165,-241.586 1165,-277.586"/>
<text text-anchor="middle" x="1099" y="-256.686" font-family="Times Roman,serif" font-size="11.00">AcceptHeaderPluging</text>
</g>
<!-- \\Ant\\Guzzle\\Plugin\\AcceptHeaderPluging&#45;&gt;\\Symfony\\Component\\EventDispatcher\\EventSubscriberInterface -->
<g id="edge29" class="edge"><title>\\Ant\\Guzzle\\Plugin\\AcceptHeaderPluging&#45;&gt;\\Symfony\\Component\\EventDispatcher\\EventSubscriberInterface</title>
<path fill="none" stroke="black" stroke-dasharray="1,5" d="M1092.57,-241.395C1076.49,-198.962 1030.13,-93.6297 952,-48.5864 942.418,-43.0624 932.403,-38.2291 922.077,-34.0129"/>
<polygon fill="none" stroke="black" points="923.1,-30.6559 912.511,-30.3123 920.575,-37.1844 923.1,-30.6559"/>
</g>
</g>
</svg>
